<?xml version="1.0" encoding="utf-8"?>
<svg width="40px" height="40px" viewBox="0 0 50 50" version="1.1" xmlns="http://www.w3.org/2000/svg" xmlns:bx="https://boxy-svg.com">
  <g id="surface1" transform="matrix(0.625, 0.00005, -0.00005, 0.625, 0.004, 0)" bx:origin="0.532 0.499">
    <path style="fill-rule: nonzero; fill-opacity: 1; fill: rgb(0, 179, 134);" d="M 68.285156 11.714844 C 60.734375 4.160156 50.6875 0 40 0 C 29.3125 0 19.265625 4.160156 11.714844 11.714844 C 4.160156 19.265625 0 29.3125 0 40 C 0 50.6875 4.160156 60.734375 11.714844 68.285156 C 19.265625 75.839844 29.3125 80 40 80 C 50.6875 80 60.734375 75.839844 68.285156 68.285156 C 75.839844 60.734375 80 50.6875 80 40 C 80 29.3125 75.839844 19.265625 68.285156 11.714844 Z M 65.878906 65.878906 C 58.96875 72.789062 49.777344 76.597656 40 76.597656 C 30.222656 76.597656 21.03125 72.789062 14.121094 65.878906 C 7.210938 58.96875 3.402344 49.777344 3.402344 40 C 3.402344 30.222656 7.210938 21.03125 14.121094 14.121094 C 21.03125 7.210938 30.222656 3.402344 40 3.402344 C 49.777344 3.402344 58.96875 7.210938 65.878906 14.121094 C 72.789062 21.03125 76.597656 30.222656 76.597656 40 C 76.597656 49.777344 72.789062 58.96875 65.878906 65.878906 Z M 65.878906 65.878906 "/>
    <path style="fill-rule: nonzero; fill-opacity: 1; fill: rgb(0, 179, 134);" d="M 58.722656 30.636719 L 53.621094 30.636719 C 53.621094 30.625 53.617188 30.613281 53.617188 30.601562 L 53.617188 24.679688 C 53.617188 21.527344 51.871094 19.113281 48.703125 17.882812 C 46.515625 17.03125 44.347656 17.019531 44.253906 17.019531 L 35.746094 17.019531 C 26.359375 17.019531 18.722656 24.65625 18.722656 34.042969 L 18.722656 45.957031 C 18.722656 55.34375 26.359375 62.980469 35.746094 62.980469 L 44.253906 62.980469 C 53.640625 62.980469 61.277344 55.34375 61.277344 45.957031 L 61.277344 33.191406 C 61.277344 31.53125 59.960938 30.636719 58.722656 30.636719 Z M 57.871094 45.957031 C 57.871094 53.464844 51.765625 59.574219 44.253906 59.574219 L 35.746094 59.574219 C 28.234375 59.574219 22.128906 53.464844 22.128906 45.957031 L 22.128906 34.042969 C 22.128906 26.535156 28.234375 20.425781 35.746094 20.425781 L 44.25 20.425781 C 44.265625 20.425781 45.941406 20.441406 47.539062 21.082031 C 49.933594 22.042969 50.210938 23.597656 50.210938 24.679688 L 50.210938 30.636719 C 50.210938 32.289062 51.40625 34.042969 53.617188 34.042969 L 57.871094 34.042969 Z M 57.871094 45.957031 "/>
    <path style="fill-rule: nonzero; fill-opacity: 1; fill: rgb(0, 179, 134);" d="M 32.339844 35.746094 L 41.703125 35.746094 C 44.046875 35.746094 45.957031 33.835938 45.957031 31.488281 C 45.957031 29.144531 44.046875 27.234375 41.703125 27.234375 L 32.339844 27.234375 C 29.992188 27.234375 28.085938 29.144531 28.085938 31.488281 C 28.085938 33.835938 29.992188 35.746094 32.339844 35.746094 Z M 32.339844 30.636719 L 41.703125 30.636719 C 42.171875 30.636719 42.554688 31.019531 42.554688 31.488281 C 42.554688 31.957031 42.171875 32.339844 41.703125 32.339844 L 32.339844 32.339844 C 31.871094 32.339844 31.488281 31.957031 31.488281 31.488281 C 31.488281 31.019531 31.871094 30.636719 32.339844 30.636719 Z M 32.339844 30.636719 "/>
    <path style="fill-rule: nonzero; fill-opacity: 1; fill: rgb(0, 179, 134);" d="M 48.511719 42.554688 L 31.488281 42.554688 C 29.144531 42.554688 27.234375 44.460938 27.234375 46.808594 C 27.234375 49.15625 29.144531 51.0625 31.488281 51.0625 L 48.511719 51.0625 C 50.855469 51.0625 52.765625 49.15625 52.765625 46.808594 C 52.765625 44.460938 50.855469 42.554688 48.511719 42.554688 Z M 48.511719 47.660156 L 31.488281 47.660156 C 31.019531 47.660156 30.636719 47.277344 30.636719 46.808594 C 30.636719 46.339844 31.019531 45.957031 31.488281 45.957031 L 48.511719 45.957031 C 48.980469 45.957031 49.363281 46.339844 49.363281 46.808594 C 49.363281 47.277344 48.980469 47.660156 48.511719 47.660156 Z M 48.511719 47.660156 "/>
  </g>
</svg>